<svg width="823" height="893" viewBox="0 0 823 893" fill="none" xmlns="http://www.w3.org/2000/svg">
<path d="M409 278L419.387 307.793H453L422.879 325.908L436.193 356L409 337.587L381.807 356L395.12 325.908L365 307.793H398.613L409 278Z" fill="white"/>
<path d="M302.232 618.412L144.141 530.068L126.453 543.334C173.86 556.601 404.525 706.757 409.175 730.006C435.214 689.088 609.113 588.964 692.808 544.017L674.209 530.068L516.119 623.062C482.021 646.311 412.895 690.948 409.175 702.107C405.455 687.228 336.33 640.111 302.232 618.412Z" fill="white"/>
<path d="M158.09 650.961L358.028 850.898L344.079 892.746C336.64 877.867 167.39 728.456 83.6949 655.61C51.1469 627.712 27.8983 618.412 0 604.463C69.7458 553.316 165.84 585.864 204.588 609.113L316.181 683.508C340.979 706.757 394.296 756.974 409.175 771.853C424.054 751.264 477.371 704.378 502.169 683.508C517.669 672.659 566.336 640.731 637.011 599.814C753.254 544.017 809.051 595.164 823 609.113C800.681 605.393 697.458 685.058 650.96 725.356L474.271 892.746L460.322 850.898L660.26 650.96C595.164 627.712 464.972 756.354 409.175 818.35C392.126 798.201 343.149 745.815 283.633 697.458C224.116 649.101 175.139 646.311 158.09 650.961Z" fill="white"/>
<path d="M274.333 492.87L246.435 548.667L404.525 650.96V641.661C359.578 612.213 267.824 551.456 260.384 544.017C251.085 539.367 278.983 497.52 283.633 488.22C279.913 488.22 275.883 491.32 274.333 492.87Z" fill="white"/>
<path d="M413.825 641.661V650.96L571.915 548.667C565.715 534.717 552.386 504.959 548.667 497.52C544.947 490.08 537.817 488.22 534.717 488.22L553.316 525.418C560.756 540.297 562.616 544.017 553.316 548.667L413.825 641.661Z" fill="white"/>
<path d="M297.582 492.87L278.983 539.367L395.226 613.763L404.525 604.463C395.226 571.915 320.83 544.017 306.881 539.367C295.722 528.208 305.331 500.619 311.531 488.22L297.582 492.87Z" fill="white"/>
<path d="M423.124 613.763L418.475 599.813C460.322 548.667 492.87 548.667 511.469 539.367C526.348 535.647 514.569 500.62 506.819 483.571L520.768 488.22L539.367 539.367L423.124 613.763Z" fill="white"/>
<path d="M409.175 544.017C394.296 506.819 342.529 489.77 320.831 488.22C313.081 503.719 301.302 535.647 316.181 539.367C371.978 544.017 385.927 567.265 409.175 595.164C438.933 550.526 480.471 539.367 497.52 539.367C505.269 534.717 515.189 517.978 492.87 488.22C444.513 495.66 416.925 528.518 409.175 544.017Z" fill="white"/>
<path d="M380.149 14.559C317.119 50.4609 290.793 65.9861 266.264 81.7423C212.984 115.981 182.525 143.427 161.365 176.233C138.004 212.366 126.279 255.107 122.28 318.547C119.72 359.255 120.708 416.458 125.201 487.615C125.695 495.331 126.099 501.846 126.099 502.123C126.099 502.354 127.761 500.229 129.783 497.318C142.137 479.575 159.298 461.139 177.583 446.029C188.005 437.389 201.797 427.501 211.771 421.54L215.904 419.091L215.724 417.197C215.275 413.131 214.601 396.866 214.152 379.863C212.849 329.406 216.982 286.296 225.877 258.202C230.369 243.879 235.266 234.453 241.78 227.522C252.023 216.617 253.461 215.323 265.366 206.914C288.502 190.465 335.314 161.494 391.065 129.057L409.17 118.476L423.187 126.608C474.581 156.457 519.236 183.857 545.023 201.415C561.286 212.459 568.518 218.327 573.864 224.796C574.134 225.165 575.527 226.598 576.919 227.984C582.22 233.251 587.881 243.971 591.924 256.4C598.169 275.714 601.583 297.154 603.739 330.33C604.458 341.512 604.458 384.991 603.739 398.483C603.425 403.936 603.066 410.82 602.931 413.778L602.616 419.137L608.187 422.557C639.904 442.009 670.588 470.657 689.276 498.288L691.882 502.169L692.241 500.598C692.511 499.166 693.275 486.921 694.847 458.551C697.453 411.329 698.216 356.944 696.644 327.095C692.151 240.737 674.766 190.788 634.423 148.094C608.367 120.555 574.808 96.482 509.532 58.5469C493.629 49.2596 407.867 0.373749 406.879 0.00411987C406.475 -0.180725 395.378 5.87225 380.149 14.559Z" fill="white"/>
<path d="M409.175 185.989C405.456 185.989 392.126 204.588 385.927 213.887C390.576 215.437 401.736 220.397 409.175 227.836C420.335 220.397 429.324 215.437 432.424 213.887C426.224 204.588 412.895 185.989 409.175 185.989Z" fill="white"/>
<path d="M409.175 469.621C412.895 469.621 426.224 451.022 432.424 441.723C427.774 440.173 416.615 435.213 409.175 427.774C398.016 435.213 389.026 440.173 385.927 441.723C392.126 451.022 405.455 469.621 409.175 469.621Z" fill="white"/>
<path d="M548.667 325.48C548.667 321.761 530.068 308.431 520.768 302.232C519.218 306.881 514.259 318.041 506.819 325.48C514.259 336.64 519.218 345.629 520.768 348.729C530.068 342.529 548.667 329.2 548.667 325.48Z" fill="white"/>
<path d="M269.684 325.48C269.684 329.2 288.282 342.529 297.582 348.729C299.132 344.079 304.092 332.92 311.531 325.48C304.092 314.321 299.132 305.332 297.582 302.232C288.282 308.431 269.684 321.761 269.684 325.48Z" fill="white"/>
<path d="M532.026 252.955C529.85 249.68 505.031 249.254 492.893 249.45C494.195 254.487 496.184 267.328 493.727 278.402C507.064 283.703 514.314 288.645 517.546 290.431C522.43 279.318 534.202 256.23 532.026 252.955Z" fill="white"/>
<path d="M288.716 257.894C287.122 261.346 298.267 281.497 304.038 291.141C307.435 287.474 316.71 279.192 326.639 275.4C324.678 261.931 325.247 253.537 325.17 250.011C314.087 251.875 290.309 254.442 288.716 257.894Z" fill="white"/>
<path d="M478.919 204.588C475.7 202.724 451.748 213.595 441.723 218.537C444.971 222.208 452.959 231.62 455.67 241.785C469.055 240.938 480.109 241.574 483.569 241.785C482.862 230.631 482.138 206.451 478.919 204.588Z" fill="white"/>
<path d="M340.854 201.663C337.703 203.483 335.459 229.498 334.856 240.585C339.571 239.652 351.495 237.552 361.518 240.356C367.252 228.454 373.133 219.299 374.985 216.441C365.082 211.42 344.006 199.844 340.854 201.663Z" fill="white"/>
<path d="M337.112 450.899C340.181 452.829 364.185 442.635 374.25 437.98C371.24 434.256 363.852 424.715 361.675 414.557C348.509 415.065 337.698 414.159 334.316 413.863C334.48 424.952 334.043 448.969 337.112 450.899Z" fill="white"/>
<path d="M478.918 452.321C482.005 450.421 483.471 424.383 483.744 413.297C479.072 414.351 467.249 416.761 457.175 414.224C451.811 426.259 446.221 435.556 444.46 438.459C454.479 443.213 475.83 454.22 478.918 452.321Z" fill="white"/>
<path fill-rule="evenodd" clip-rule="evenodd" d="M367.328 251.085C356.168 247.365 337.879 246.435 330.13 246.435C330.13 255.734 331.06 276.193 334.78 283.633C327.34 283.633 309.981 292.932 302.232 297.582C303.782 302.232 309.671 314.321 320.83 325.48C305.951 344.079 302.232 354.928 302.232 358.028C311.531 362.678 331.06 371.977 334.78 371.977C332.463 371.977 331.228 380.394 330.627 389.364C328.434 390.454 326.205 391.579 323.943 392.736C323.504 387.549 323.482 381.613 324.528 376.259C314.65 370.887 308.411 366.192 304.833 363.5L304.833 363.5C304.006 362.878 303.321 362.362 302.766 361.97C301.844 364.191 300.636 366.924 299.331 369.877C294.642 380.486 288.702 393.925 290.285 396.592C291.404 398.476 298.763 400.289 306.979 401.731C251.743 432.052 185.845 478.479 172.04 525.418L199.938 539.367C224.403 498.592 288.201 436.363 353.704 405.985C356.466 405.716 359.061 405.399 361.268 405.13H361.268C364.052 404.79 366.219 404.525 367.328 404.525C363.608 408.245 375.077 427.774 381.277 437.073C390.576 430.874 409.175 417.545 409.175 413.825C409.175 417.545 427.774 430.874 437.073 437.073C441.723 429.324 451.953 411.965 455.672 404.525C464.011 405.915 470.446 406.483 475.316 406.568C536.975 438.42 595.278 496.161 618.412 534.717L646.311 520.768C632.963 475.387 570.924 430.485 516.905 400.154C522.585 398.878 526.973 397.481 527.705 395.988C529.488 392.35 519.822 371.441 514.765 361.442C511.198 365.335 501.566 374.152 491.577 378.281C491.815 381.401 491.946 384.261 492.005 386.863C490.468 386.084 488.946 385.322 487.443 384.575C486.809 378.966 485.659 374.065 483.571 371.977L520.768 358.028L497.52 325.48C504.959 318.041 516.119 302.232 516.119 297.582C508.369 292.932 491.01 283.633 483.571 283.633C487.29 279.913 488.22 257.284 488.22 246.435C478.921 246.435 464.972 246.435 451.023 251.085C451.023 236.206 441.723 223.186 437.073 218.537C430.874 221.637 416.615 229.696 409.175 237.136C401.736 229.696 387.476 221.637 381.277 218.537C378.177 223.186 371.047 236.206 367.328 251.085ZM409.175 246.435L390.576 297.582L344.079 288.283L376.627 325.48L344.079 367.328L390.576 358.028L409.175 404.526L427.774 358.028L474.271 367.328L446.373 325.48L478.921 288.283L427.774 297.582L409.175 246.435Z" fill="white"/>
</svg>
